<svg xmlns="http://www.w3.org/2000/svg" viewBox="0 0 600 288.82"><defs><style>.cls-1{fill:#fff;}</style></defs><title>0Asset 3</title><g id="Layer_2" data-name="Layer 2"><g id="Layer_1-2" data-name="Layer 1"><path class="cls-1" d="M123.07,191.14q-9.24-11.31-16.59-21.16T93,151.76q-6.09-8.38-11.55-16.34,7.14-28.91,14.7-63.26t14.7-70c0-.84-.56-1.47-1.68-1.89a7.11,7.11,0,0,0-4.2,0,10.53,10.53,0,0,0-4.83,2.93A12.34,12.34,0,0,0,97,9.74q-1.26,7.13-3.15,15.92t-5,21.58q-3.15,12.78-7.56,30T70.57,117.83Q58,101.49,49.77,89.76T35.49,68.18Q29.4,58.34,23.94,49.33t-13-19.48a18.17,18.17,0,0,0-3.78-4.19,13.33,13.33,0,0,0-4-2.3c-1.26-.42-2.17-.28-2.73.42s-.56,2,0,4a182,182,0,0,0,10.5,25.56Q17.22,65.88,25,79.49T42.21,108.4q9.45,15.3,20.37,33.31c.28.56.28,2.09,0,4.61q-.42,3.36-1.47,9.22T58,171.45q-3.37,14.67-5.46,25.77t-4.62,23.46Q45.36,233,41.79,248.54t-9,38.12c0,1.68,1.12,2.37,3.36,2.09s4.9-1.54,8-3.77q2.1-5.87,6.51-20.53t9.24-32.68q4.82-18,9.66-37.29t7.77-34.77q11.75,15.5,20.79,26.6t16.38,19.48q7.34,8.39,13.23,15.29t12.18,13.62q3.36.42,5.67-3.35t-1.89-15.08Q132.31,202.45,123.07,191.14Z"/><path class="cls-1" d="M416.67,230.73a39.18,39.18,0,0,1-16.38-5.66,18.25,18.25,0,0,1-7.35-9.22,102,102,0,0,1-7.56-26.39Q383.7,176.9,382,166.63a68,68,0,0,0-5.46-18.22q-3.78-8-13-12.15-4.2-1.67-9,2.51a51.52,51.52,0,0,0-9.45,11.52,116.33,116.33,0,0,0-8.61,16.76q-4,9.43-7.35,17.8t-5.25,14.87q-1.89,6.5-1.89,8.17.41-7.54.63-17.18v-.48a8.74,8.74,0,0,0,.2-3.08,1,1,0,0,0-.13-.33c.11-5.28.22-10.82.34-16.64q.21-10.89.42-22.62t.21-23.46a8.15,8.15,0,0,1-4.2-1.68c-1.68-1.11-3.29-2.23-4.83-3.35a7.43,7.43,0,0,0-4.2-1.68q-1.89,0-1.89,3.77,1.26,24.3,1.89,57.19.2,10.31.12,21l-.33.33q-5.26,5.24-14.07,12.78-5.46,5-14.28,11.73a86.31,86.31,0,0,1-18.06,10.68,32.1,32.1,0,0,1-17.64,2.72q-8.41-1.26-12.6-12.15a209,209,0,0,0,31.29-27.23Q278.06,184,286,162.66q5.45-19.27-1.05-26T266.3,130.4q-3.78-1.26-9.66.63l-7.14,2.3a47.15,47.15,0,0,0-14.7,12.78A105.26,105.26,0,0,0,223,166q-8,22.62-8.4,36.87t1.68,22.62a25.75,25.75,0,0,0,1.68,5,31,31,0,0,0,4,6.49,24.2,24.2,0,0,0,2.48,2.74c-2,2.11-4.15,4.27-6.6,6.47a28.89,28.89,0,0,1-9.66,5.86,20,20,0,0,1-11.13.63q-5.89-1.26-11.76-8.38a102.79,102.79,0,0,1-6.09-22.83A246.75,246.75,0,0,1,176.7,196q-.63-13.2-.63-26.81t-.84-26.6A371.16,371.16,0,0,1,213.46,135q20.16-2.93,35.7-4.61,4.62-.83,3.36-4.82a5.91,5.91,0,0,0-5.46-4.4q-18.9,1.68-36.33,3.14T175.23,127q.41-5.86.42-14.24t-.21-16.55q-.22-8.17-.63-15.5a45.49,45.49,0,0,0-1.68-11.1,5.78,5.78,0,0,0-3.36-3.14,12,12,0,0,0-5.46-.84,15.42,15.42,0,0,0-5.25,1.26,3.36,3.36,0,0,0-2.31,3.14q0,8.8.21,14.24t.63,11.1q.41,5.66.84,13.2t.84,20.95A180.27,180.27,0,0,1,136,131.44q-12,.22-18.27,1.89-4.2.84-5.67,2.09a4.41,4.41,0,0,0-1.68,2.51,11.35,11.35,0,0,0,0,3.14,13.12,13.12,0,0,1-.21,4,55.28,55.28,0,0,0,4.62,3.77q1.26.84,5,.42t12.39-1.68q8.6-1.26,27.09-2.93,1.26,15.08,2.1,33.93t3.15,36.24a149.35,149.35,0,0,0,6.93,30.37q4.62,13,14.28,15.5a37.92,37.92,0,0,0,25.83-1.47,34.35,34.35,0,0,0,9-5.66,66,66,0,0,0,6.3-6.28,24.08,24.08,0,0,0,2.73-3.44l.13.09a60.24,60.24,0,0,0,13.44,6.28,47.66,47.66,0,0,0,17.85,0,42.77,42.77,0,0,0,14.28-5.87,81.56,81.56,0,0,0,12.39-9.84q5.88-5.66,12.18-11.52,5.45-6.28,9.24-10.05l1.22-1.23q-.36,17.7-1.43,36.42c2.24,3.08,3.85,4.46,4.83,4.19a40.26,40.26,0,0,1,7.77-.42q.41-1.67,2.52-9.22t5.67-18q3.56-10.47,7.77-22.41t8.82-22a128.14,128.14,0,0,1,9-16.76q4.41-6.7,8.19-7.12,2.52,0,4.62,7.75T373,183q2.73,11.1,6.09,23a81.38,81.38,0,0,0,8.61,20.53q5.25,8.59,12.81,11.1t18.06-5.45C419.12,231.36,418.49,230.88,416.67,230.73ZM235,184.23a112.78,112.78,0,0,1,9.87-22.41q5.88-10.05,13-15.5t14.28-2.09c.56,0,1.12.42,1.68,1.26q1.67,2.51.42,8.8a38.37,38.37,0,0,1-5.25,17.6,81.86,81.86,0,0,1-11.34,15.29,94.2,94.2,0,0,1-13.86,12.15A122.87,122.87,0,0,1,231,207.48,75.72,75.72,0,0,1,235,184.23Z"/><path class="cls-1" d="M499,91.22a16.58,16.58,0,0,1,4.41.21q4.62-.83,5.88-3.56t5.88-6.49q2.52-2.93,1.68-8.8t-5-5q-7.15,2.94-10.71,7.54a34.32,34.32,0,0,0-5.25,9.22Q497.06,91.44,499,91.22Z"/><path class="cls-1" d="M518.9,216.7Q516.8,190.3,516,166.22T513,122a9,9,0,0,0-5.46,0,9.89,9.89,0,0,0-3.36,2.09,16.45,16.45,0,0,0-2.31,2.93,6.74,6.74,0,0,1-2.73,2.51q.84,10.05,1.89,27.23,1,16.46,2,33.87l-1.46.69q-4.83,2.31-9.45,5t-10.5,5.86q-5.89,3.14-14.28,7.75a107.14,107.14,0,0,0-17.22-9.22q-10.5-4.6-21-10.26A116.11,116.11,0,0,1,410,177.74a37.61,37.61,0,0,1-12-16.76q-3.37-9.63,3.36-16.34t17.85-9.43a72.1,72.1,0,0,1,24.15-1.47q13,1.26,22.26,7.12,3.36,2.1,6.93,4.19t4,.42q-2.11-3.35-4.41-7.12a33.4,33.4,0,0,0-6.3-7.33A39.69,39.69,0,0,0,455,124.53a76.5,76.5,0,0,0-17.43-4.61,48.85,48.85,0,0,0-21.63,1.47A51.06,51.06,0,0,0,397.85,131a43.45,43.45,0,0,0-11.76,15.08,29,29,0,0,0-2.31,17.8q.85,8.39,10.08,16.76a151.3,151.3,0,0,0,20.79,15.71q11.55,7.33,22.47,13.41t14.7,10.26q-5.46,4.61-12.6,10.47a95.86,95.86,0,0,0-12.6,12.36,41.12,41.12,0,0,0-7.77,13.41q-2.31,6.91,2.31,13.62a20.32,20.32,0,0,0,11.34,6.7,22.78,22.78,0,0,0,13-.42q8.82-2.94,19.32-10.47t18.9-20.95a15.62,15.62,0,0,0,1.89-10.68,34.69,34.69,0,0,0-3.57-9.84,41.85,41.85,0,0,0-8-9.64q9.23-5.86,17.22-10.89t10.92-7.12l1.13-.81q.94,16.17,1.89,30.13,1,15.5,1.89,22.2a42,42,0,0,0,7.14,3.56q3.78,1.46,10.5.21-.85-6.7-2.52-14.24T518.9,216.7Zm-49,23.46a28.26,28.26,0,0,1-5.25,8.59,56,56,0,0,1-9.24,8.8,41.6,41.6,0,0,1-11.13,6.08q-5.89,2.09-10.5,0-2.94-2.51-.84-7.54a43.7,43.7,0,0,1,6.51-10.47,91.78,91.78,0,0,1,10.29-10.68q5.88-5.23,10.5-8.59a39,39,0,0,1,7.35,6.49Q471.14,236.81,469.89,240.16Z"/><path class="cls-1" d="M599.76,163.7q-.85-9.43-5.88-14a50.85,50.85,0,0,0-12.81-9,127.68,127.68,0,0,0-17-7.12,145,145,0,0,0-18.9-5,128.31,128.31,0,0,0-17.64-2.3,15.06,15.06,0,0,1-4.62,5,13,13,0,0,1-3.36,2.51,18.33,18.33,0,0,1,2.94,2.72q1.26,1.47,2.52,3.14a45.12,45.12,0,0,1,2.52,3.77,219.1,219.1,0,0,0-2.94,28.49,378.31,378.31,0,0,0,.42,39.38,67.94,67.94,0,0,0,2.31,11.94,52.26,52.26,0,0,0,5.67,13.2,34.89,34.89,0,0,0,10.08,10.68q6.3,4.4,15.54,4.4,5.45,0,11.76-6.28a73.51,73.51,0,0,0,11.76-15.92A147.59,147.59,0,0,0,592,207.69a142.43,142.43,0,0,0,6.51-23.25A76.85,76.85,0,0,0,599.76,163.7Zm-13.23,21.79A79.5,79.5,0,0,1,580,206.43,77.62,77.62,0,0,1,564.9,228q-3.78,3.77-7.14,4.61a11.39,11.39,0,0,1-6.51-.21,14.59,14.59,0,0,1-5.25-2.93,25.23,25.23,0,0,1-3.36-3.56q-1.68-2.93-3.15-11.1a122.6,122.6,0,0,1-1.68-19.27A171.18,171.18,0,0,1,539.28,171a152.85,152.85,0,0,1,5.88-26.81q8.82,2.51,14.28,4t9,2.72a29.37,29.37,0,0,1,5.88,2.72q2.3,1.47,5.67,3.56,4.19,3.36,6.09,10.89A44.6,44.6,0,0,1,586.53,185.49Z"/></g></g></svg>